# xmcd
#
# Track frame offsets:
#	150
#	13065
#	30227
#	44843
#	56886
#	80451
#	93264
#	104404
#	122716
#	139865
#
# Disc length: 2084 seconds
#
# Revision: 1
# Processed by: cddbd v1.5.2PL0 Copyright (c) Steve Scherf et al.
# Submitted via: audiograbber 1.83.01
#
DISCID=8408220a
DTITLE=Phillip Clarkson - South Fork Records 04
DYEAR=2008
DGENRE=Country
TTITLE0=Back From Nashville  - Phillip Clarkson
TTITLE1=Sweet, Sweet Charlene  - Phil Coley
TTITLE2=Cold October Night  - Clifton Greenwell
TTITLE3=Hayride Party Tonight  - Phillip Clarkson
TTITLE4=A Perfect Pair - Brian Sherrell
TTITLE5=A Real Good Woman - Phil Coley
TTITLE6=Style All Your Own  - Phillip Clarkson
TTITLE7=Walking Away  - As Is
TTITLE8=I´d Over Do It With You  - Phillip Clarkson
TTITLE9=In My Time  - Phillip Clarkson
EXTD=
EXTT0=
EXTT1=
EXTT2=
EXTT3=
EXTT4=
EXTT5=
EXTT6=
EXTT7=
EXTT8=
EXTT9=
PLAYORDER=
